<svg width="363" height="182" viewBox="0 0 363 182" fill="none" xmlns="http://www.w3.org/2000/svg">
<path d="M0 140C0 135.582 3.58172 132 8 132H355C359.418 132 363 135.582 363 140V174C363 178.418 359.418 182 355 182H8C3.58173 182 0 178.418 0 174V140Z" fill="#3485FF"/>
<path d="M123 149.5H126.333C126.775 149.5 127.199 149.676 127.512 149.988C127.824 150.301 128 150.725 128 151.167V162.833C128 163.275 127.824 163.699 127.512 164.012C127.199 164.324 126.775 164.5 126.333 164.5H123" stroke="#FAFAFA" stroke-width="2" stroke-linecap="round" stroke-linejoin="round"/>
<path d="M118.833 161.167L123 157L118.833 152.833" stroke="#FAFAFA" stroke-width="2" stroke-linecap="round" stroke-linejoin="round"/>
<path d="M123 157H113" stroke="#FAFAFA" stroke-width="2" stroke-linecap="round" stroke-linejoin="round"/>
<path d="M143.524 153.352V156.616H147.364V158.104H143.524V161.512H147.844V163H141.7V151.864H147.844V153.352H143.524ZM154.539 154.04C155.232 154.04 155.851 154.184 156.395 154.472C156.949 154.76 157.381 155.187 157.691 155.752C158 156.317 158.155 157 158.155 157.8V163H156.347V158.072C156.347 157.283 156.149 156.68 155.755 156.264C155.36 155.837 154.821 155.624 154.139 155.624C153.456 155.624 152.912 155.837 152.507 156.264C152.112 156.68 151.915 157.283 151.915 158.072V163H150.091V154.184H151.915V155.192C152.213 154.829 152.592 154.547 153.051 154.344C153.52 154.141 154.016 154.04 154.539 154.04ZM162.609 155.672V160.552C162.609 160.883 162.684 161.123 162.833 161.272C162.993 161.411 163.26 161.48 163.633 161.48H164.753V163H163.313C162.492 163 161.863 162.808 161.425 162.424C160.988 162.04 160.769 161.416 160.769 160.552V155.672H159.729V154.184H160.769V151.992H162.609V154.184H164.753V155.672H162.609ZM168.258 155.464C168.525 155.016 168.877 154.669 169.314 154.424C169.762 154.168 170.29 154.04 170.898 154.04V155.928H170.434C169.72 155.928 169.176 156.109 168.802 156.472C168.44 156.835 168.258 157.464 168.258 158.36V163H166.434V154.184H168.258V155.464ZM171.967 158.552C171.967 157.667 172.148 156.883 172.511 156.2C172.884 155.517 173.386 154.989 174.015 154.616C174.655 154.232 175.359 154.04 176.127 154.04C176.82 154.04 177.423 154.179 177.935 154.456C178.458 154.723 178.874 155.059 179.183 155.464V154.184H181.023V163H179.183V161.688C178.874 162.104 178.452 162.451 177.919 162.728C177.386 163.005 176.778 163.144 176.095 163.144C175.338 163.144 174.644 162.952 174.015 162.568C173.386 162.173 172.884 161.629 172.511 160.936C172.148 160.232 171.967 159.437 171.967 158.552ZM179.183 158.584C179.183 157.976 179.055 157.448 178.799 157C178.554 156.552 178.228 156.211 177.823 155.976C177.418 155.741 176.98 155.624 176.511 155.624C176.042 155.624 175.604 155.741 175.199 155.976C174.794 156.2 174.463 156.536 174.207 156.984C173.962 157.421 173.839 157.944 173.839 158.552C173.839 159.16 173.962 159.693 174.207 160.152C174.463 160.611 174.794 160.963 175.199 161.208C175.615 161.443 176.052 161.56 176.511 161.56C176.98 161.56 177.418 161.443 177.823 161.208C178.228 160.973 178.554 160.632 178.799 160.184C179.055 159.725 179.183 159.192 179.183 158.584ZM185.243 155.464C185.509 155.016 185.861 154.669 186.299 154.424C186.747 154.168 187.275 154.04 187.883 154.04V155.928H187.419C186.704 155.928 186.16 156.109 185.787 156.472C185.424 156.835 185.243 157.464 185.243 158.36V163H183.419V154.184H185.243V155.464ZM198.164 154.04C198.857 154.04 199.476 154.184 200.02 154.472C200.574 154.76 201.006 155.187 201.316 155.752C201.625 156.317 201.78 157 201.78 157.8V163H199.972V158.072C199.972 157.283 199.774 156.68 199.38 156.264C198.985 155.837 198.446 155.624 197.764 155.624C197.081 155.624 196.537 155.837 196.132 156.264C195.737 156.68 195.54 157.283 195.54 158.072V163H193.716V154.184H195.54V155.192C195.838 154.829 196.217 154.547 196.676 154.344C197.145 154.141 197.641 154.04 198.164 154.04ZM203.498 158.552C203.498 157.667 203.68 156.883 204.042 156.2C204.416 155.517 204.917 154.989 205.546 154.616C206.186 154.232 206.89 154.04 207.658 154.04C208.352 154.04 208.954 154.179 209.466 154.456C209.989 154.723 210.405 155.059 210.714 155.464V154.184H212.554V163H210.714V161.688C210.405 162.104 209.984 162.451 209.45 162.728C208.917 163.005 208.309 163.144 207.626 163.144C206.869 163.144 206.176 162.952 205.546 162.568C204.917 162.173 204.416 161.629 204.042 160.936C203.68 160.232 203.498 159.437 203.498 158.552ZM210.714 158.584C210.714 157.976 210.586 157.448 210.33 157C210.085 156.552 209.76 156.211 209.354 155.976C208.949 155.741 208.512 155.624 208.042 155.624C207.573 155.624 207.136 155.741 206.73 155.976C206.325 156.2 205.994 156.536 205.738 156.984C205.493 157.421 205.37 157.944 205.37 158.552C205.37 159.16 205.493 159.693 205.738 160.152C205.994 160.611 206.325 160.963 206.73 161.208C207.146 161.443 207.584 161.56 208.042 161.56C208.512 161.56 208.949 161.443 209.354 161.208C209.76 160.973 210.085 160.632 210.33 160.184C210.586 159.725 210.714 159.192 210.714 158.584ZM222.306 163.144C221.613 163.144 220.989 163.021 220.434 162.776C219.89 162.52 219.458 162.179 219.138 161.752C218.818 161.315 218.648 160.829 218.626 160.296H220.514C220.546 160.669 220.722 160.984 221.042 161.24C221.373 161.485 221.784 161.608 222.274 161.608C222.786 161.608 223.181 161.512 223.458 161.32C223.746 161.117 223.89 160.861 223.89 160.552C223.89 160.221 223.73 159.976 223.41 159.816C223.101 159.656 222.605 159.48 221.922 159.288C221.261 159.107 220.722 158.931 220.306 158.76C219.89 158.589 219.528 158.328 219.218 157.976C218.92 157.624 218.77 157.16 218.77 156.584C218.77 156.115 218.909 155.688 219.186 155.304C219.464 154.909 219.858 154.6 220.37 154.376C220.893 154.152 221.49 154.04 222.162 154.04C223.165 154.04 223.97 154.296 224.578 154.808C225.197 155.309 225.528 155.997 225.57 156.872H223.746C223.714 156.477 223.554 156.163 223.266 155.928C222.978 155.693 222.589 155.576 222.098 155.576C221.618 155.576 221.25 155.667 220.994 155.848C220.738 156.029 220.61 156.269 220.61 156.568C220.61 156.803 220.696 157 220.866 157.16C221.037 157.32 221.245 157.448 221.49 157.544C221.736 157.629 222.098 157.741 222.578 157.88C223.218 158.051 223.741 158.227 224.146 158.408C224.562 158.579 224.92 158.835 225.218 159.176C225.517 159.517 225.672 159.971 225.682 160.536C225.682 161.037 225.544 161.485 225.266 161.88C224.989 162.275 224.594 162.584 224.082 162.808C223.581 163.032 222.989 163.144 222.306 163.144ZM227.045 158.552C227.045 157.667 227.226 156.883 227.589 156.2C227.962 155.517 228.464 154.989 229.093 154.616C229.733 154.232 230.437 154.04 231.205 154.04C231.898 154.04 232.501 154.179 233.013 154.456C233.536 154.723 233.952 155.059 234.261 155.464V154.184H236.101V163H234.261V161.688C233.952 162.104 233.53 162.451 232.997 162.728C232.464 163.005 231.856 163.144 231.173 163.144C230.416 163.144 229.722 162.952 229.093 162.568C228.464 162.173 227.962 161.629 227.589 160.936C227.226 160.232 227.045 159.437 227.045 158.552ZM234.261 158.584C234.261 157.976 234.133 157.448 233.877 157C233.632 156.552 233.306 156.211 232.901 155.976C232.496 155.741 232.058 155.624 231.589 155.624C231.12 155.624 230.682 155.741 230.277 155.976C229.872 156.2 229.541 156.536 229.285 156.984C229.04 157.421 228.917 157.944 228.917 158.552C228.917 159.16 229.04 159.693 229.285 160.152C229.541 160.611 229.872 160.963 230.277 161.208C230.693 161.443 231.13 161.56 231.589 161.56C232.058 161.56 232.496 161.443 232.901 161.208C233.306 160.973 233.632 160.632 233.877 160.184C234.133 159.725 234.261 159.192 234.261 158.584ZM240.321 151.16V163H238.497V151.16H240.321ZM242.108 158.552C242.108 157.667 242.289 156.883 242.652 156.2C243.025 155.517 243.526 154.989 244.156 154.616C244.796 154.232 245.5 154.04 246.268 154.04C246.961 154.04 247.564 154.179 248.076 154.456C248.598 154.723 249.014 155.059 249.324 155.464V154.184H251.164V163H249.324V161.688C249.014 162.104 248.593 162.451 248.06 162.728C247.526 163.005 246.918 163.144 246.236 163.144C245.478 163.144 244.785 162.952 244.156 162.568C243.526 162.173 243.025 161.629 242.652 160.936C242.289 160.232 242.108 159.437 242.108 158.552ZM249.324 158.584C249.324 157.976 249.196 157.448 248.94 157C248.694 156.552 248.369 156.211 247.964 155.976C247.558 155.741 247.121 155.624 246.652 155.624C246.182 155.624 245.745 155.741 245.34 155.976C244.934 156.2 244.604 156.536 244.348 156.984C244.102 157.421 243.98 157.944 243.98 158.552C243.98 159.16 244.102 159.693 244.348 160.152C244.604 160.611 244.934 160.963 245.34 161.208C245.756 161.443 246.193 161.56 246.652 161.56C247.121 161.56 247.558 161.443 247.964 161.208C248.369 160.973 248.694 160.632 248.94 160.184C249.196 159.725 249.324 159.192 249.324 158.584Z" fill="#FAFAFA"/>
<path d="M22.4609 85.6016C21.2057 85.6016 20.2135 86.0208 19.4844 86.8594C18.7604 87.6927 18.3984 88.8359 18.3984 90.2891C18.3984 91.7839 18.7474 92.9401 19.4453 93.7578C20.1484 94.5703 21.1484 94.9766 22.4453 94.9766C23.2422 94.9766 24.151 94.8333 25.1719 94.5469V95.7109C24.3802 96.0078 23.4036 96.1562 22.2422 96.1562C20.5599 96.1562 19.2604 95.6458 18.3438 94.625C17.4323 93.6042 16.9766 92.1536 16.9766 90.2734C16.9766 89.0964 17.1953 88.0651 17.6328 87.1797C18.0755 86.2943 18.7109 85.612 19.5391 85.1328C20.3724 84.6536 21.3516 84.4141 22.4766 84.4141C23.6745 84.4141 24.7214 84.6328 25.6172 85.0703L25.0547 86.2109C24.1901 85.8047 23.3255 85.6016 22.4609 85.6016ZM34.8594 91.7109C34.8594 93.1068 34.5078 94.1979 33.8047 94.9844C33.1016 95.7656 32.1302 96.1562 30.8906 96.1562C30.125 96.1562 29.4453 95.9766 28.8516 95.6172C28.2578 95.2578 27.7995 94.7422 27.4766 94.0703C27.1536 93.3984 26.9922 92.612 26.9922 91.7109C26.9922 90.3151 27.3411 89.2292 28.0391 88.4531C28.737 87.6719 29.7057 87.2812 30.9453 87.2812C32.1432 87.2812 33.0938 87.6797 33.7969 88.4766C34.5052 89.2734 34.8594 90.3516 34.8594 91.7109ZM28.3359 91.7109C28.3359 92.8047 28.5547 93.638 28.9922 94.2109C29.4297 94.7839 30.0729 95.0703 30.9219 95.0703C31.7708 95.0703 32.4141 94.7865 32.8516 94.2188C33.2943 93.6458 33.5156 92.8099 33.5156 91.7109C33.5156 90.6224 33.2943 89.7969 32.8516 89.2344C32.4141 88.6667 31.7656 88.3828 30.9062 88.3828C30.0573 88.3828 29.4167 88.6615 28.9844 89.2188C28.5521 89.776 28.3359 90.6068 28.3359 91.7109ZM29.8359 86.1094C30.0859 85.7865 30.3542 85.3958 30.6406 84.9375C30.9323 84.4792 31.1615 84.0807 31.3281 83.7422H32.9062V83.9062C32.6771 84.2448 32.3359 84.6615 31.8828 85.1562C31.4297 85.651 31.0365 86.0339 30.7031 86.3047H29.8359V86.1094ZM42.9688 94.8516H42.8984C42.2995 95.7214 41.4036 96.1562 40.2109 96.1562C39.0911 96.1562 38.2188 95.7734 37.5938 95.0078C36.974 94.2422 36.6641 93.1536 36.6641 91.7422C36.6641 90.3307 36.9766 89.2344 37.6016 88.4531C38.2266 87.6719 39.0964 87.2812 40.2109 87.2812C41.3724 87.2812 42.263 87.7031 42.8828 88.5469H42.9844L42.9297 87.9297L42.8984 87.3281V83.8438H44.1953V96H43.1406L42.9688 94.8516ZM40.375 95.0703C41.2604 95.0703 41.901 94.8307 42.2969 94.3516C42.6979 93.8672 42.8984 93.0885 42.8984 92.0156V91.7422C42.8984 90.5286 42.6953 89.6641 42.2891 89.1484C41.888 88.6276 41.2448 88.3672 40.3594 88.3672C39.599 88.3672 39.0156 88.6641 38.6094 89.2578C38.2083 89.8464 38.0078 90.6797 38.0078 91.7578C38.0078 92.8516 38.2083 93.6771 38.6094 94.2344C39.0104 94.7917 39.599 95.0703 40.375 95.0703ZM48.25 96H46.9531V87.4375H48.25V96ZM46.8438 85.1172C46.8438 84.8203 46.9167 84.6042 47.0625 84.4688C47.2083 84.3281 47.3906 84.2578 47.6094 84.2578C47.8177 84.2578 47.9974 84.3281 48.1484 84.4688C48.2995 84.6094 48.375 84.8255 48.375 85.1172C48.375 85.4089 48.2995 85.6276 48.1484 85.7734C47.9974 85.9141 47.8177 85.9844 47.6094 85.9844C47.3906 85.9844 47.2083 85.9141 47.0625 85.7734C46.9167 85.6276 46.8438 85.4089 46.8438 85.1172ZM58.0078 87.4375V88.2578L56.4219 88.4453C56.5677 88.6276 56.6979 88.8672 56.8125 89.1641C56.9271 89.4557 56.9844 89.7865 56.9844 90.1562C56.9844 90.9948 56.6979 91.6641 56.125 92.1641C55.5521 92.6641 54.7656 92.9141 53.7656 92.9141C53.5104 92.9141 53.2708 92.8932 53.0469 92.8516C52.4948 93.1432 52.2188 93.5104 52.2188 93.9531C52.2188 94.1875 52.3151 94.362 52.5078 94.4766C52.7005 94.5859 53.0312 94.6406 53.5 94.6406H55.0156C55.9427 94.6406 56.6536 94.8359 57.1484 95.2266C57.6484 95.6172 57.8984 96.1849 57.8984 96.9297C57.8984 97.8776 57.5182 98.599 56.7578 99.0938C55.9974 99.5938 54.888 99.8438 53.4297 99.8438C52.3099 99.8438 51.4453 99.6354 50.8359 99.2188C50.2318 98.8021 49.9297 98.2135 49.9297 97.4531C49.9297 96.9323 50.0964 96.4818 50.4297 96.1016C50.763 95.7214 51.2318 95.4635 51.8359 95.3281C51.6172 95.2292 51.4323 95.0755 51.2812 94.8672C51.1354 94.6589 51.0625 94.4167 51.0625 94.1406C51.0625 93.8281 51.1458 93.5547 51.3125 93.3203C51.4792 93.0859 51.7422 92.8594 52.1016 92.6406C51.6589 92.4583 51.2969 92.1484 51.0156 91.7109C50.7396 91.2734 50.6016 90.7734 50.6016 90.2109C50.6016 89.2734 50.8828 88.5521 51.4453 88.0469C52.0078 87.5365 52.8047 87.2812 53.8359 87.2812C54.2839 87.2812 54.6875 87.3333 55.0469 87.4375H58.0078ZM51.1797 97.4375C51.1797 97.901 51.375 98.2526 51.7656 98.4922C52.1562 98.7318 52.7161 98.8516 53.4453 98.8516C54.5339 98.8516 55.3385 98.6875 55.8594 98.3594C56.3854 98.0365 56.6484 97.5964 56.6484 97.0391C56.6484 96.5755 56.5052 96.2526 56.2188 96.0703C55.9323 95.8932 55.3932 95.8047 54.6016 95.8047H53.0469C52.4583 95.8047 52 95.9453 51.6719 96.2266C51.3438 96.5078 51.1797 96.9115 51.1797 97.4375ZM51.8828 90.1797C51.8828 90.7786 52.0521 91.2318 52.3906 91.5391C52.7292 91.8464 53.2005 92 53.8047 92C55.0703 92 55.7031 91.3854 55.7031 90.1562C55.7031 88.8698 55.0625 88.2266 53.7812 88.2266C53.1719 88.2266 52.7031 88.3906 52.375 88.7188C52.0469 89.0469 51.8828 89.5339 51.8828 90.1797ZM67.1562 91.7109C67.1562 93.1068 66.8047 94.1979 66.1016 94.9844C65.3984 95.7656 64.4271 96.1562 63.1875 96.1562C62.4219 96.1562 61.7422 95.9766 61.1484 95.6172C60.5547 95.2578 60.0964 94.7422 59.7734 94.0703C59.4505 93.3984 59.2891 92.612 59.2891 91.7109C59.2891 90.3151 59.638 89.2292 60.3359 88.4531C61.0339 87.6719 62.0026 87.2812 63.2422 87.2812C64.4401 87.2812 65.3906 87.6797 66.0938 88.4766C66.8021 89.2734 67.1562 90.3516 67.1562 91.7109ZM60.6328 91.7109C60.6328 92.8047 60.8516 93.638 61.2891 94.2109C61.7266 94.7839 62.3698 95.0703 63.2188 95.0703C64.0677 95.0703 64.7109 94.7865 65.1484 94.2188C65.5911 93.6458 65.8125 92.8099 65.8125 91.7109C65.8125 90.6224 65.5911 89.7969 65.1484 89.2344C64.7109 88.6667 64.0625 88.3828 63.2031 88.3828C62.3542 88.3828 61.7135 88.6615 61.2812 89.2188C60.849 89.776 60.6328 90.6068 60.6328 91.7109ZM79.4219 94.8516H79.3516C78.7526 95.7214 77.8568 96.1562 76.6641 96.1562C75.5443 96.1562 74.6719 95.7734 74.0469 95.0078C73.4271 94.2422 73.1172 93.1536 73.1172 91.7422C73.1172 90.3307 73.4297 89.2344 74.0547 88.4531C74.6797 87.6719 75.5495 87.2812 76.6641 87.2812C77.8255 87.2812 78.7161 87.7031 79.3359 88.5469H79.4375L79.3828 87.9297L79.3516 87.3281V83.8438H80.6484V96H79.5938L79.4219 94.8516ZM76.8281 95.0703C77.7135 95.0703 78.3542 94.8307 78.75 94.3516C79.151 93.8672 79.3516 93.0885 79.3516 92.0156V91.7422C79.3516 90.5286 79.1484 89.6641 78.7422 89.1484C78.3411 88.6276 77.6979 88.3672 76.8125 88.3672C76.0521 88.3672 75.4688 88.6641 75.0625 89.2578C74.6615 89.8464 74.4609 90.6797 74.4609 91.7578C74.4609 92.8516 74.6615 93.6771 75.0625 94.2344C75.4635 94.7917 76.0521 95.0703 76.8281 95.0703ZM88.6719 96L88.4141 94.7812H88.3516C87.9245 95.3177 87.4974 95.6823 87.0703 95.875C86.6484 96.0625 86.1198 96.1562 85.4844 96.1562C84.6354 96.1562 83.9688 95.9375 83.4844 95.5C83.0052 95.0625 82.7656 94.4401 82.7656 93.6328C82.7656 91.9036 84.1484 90.9974 86.9141 90.9141L88.3672 90.8672V90.3359C88.3672 89.6641 88.2214 89.1693 87.9297 88.8516C87.6432 88.5286 87.1823 88.3672 86.5469 88.3672C85.8333 88.3672 85.026 88.5859 84.125 89.0234L83.7266 88.0312C84.1484 87.8021 84.6094 87.6224 85.1094 87.4922C85.6146 87.362 86.1198 87.2969 86.625 87.2969C87.6458 87.2969 88.401 87.5234 88.8906 87.9766C89.3854 88.4297 89.6328 89.1562 89.6328 90.1562V96H88.6719ZM85.7422 95.0859C86.5495 95.0859 87.1823 94.8646 87.6406 94.4219C88.1042 93.9792 88.3359 93.3594 88.3359 92.5625V91.7891L87.0391 91.8438C86.0078 91.8802 85.263 92.0417 84.8047 92.3281C84.3516 92.6094 84.125 93.0495 84.125 93.6484C84.125 94.1172 84.2656 94.474 84.5469 94.7188C84.8333 94.9635 85.2318 95.0859 85.7422 95.0859ZM101.992 93.6641C101.992 94.4609 101.695 95.0755 101.102 95.5078C100.508 95.9401 99.6745 96.1562 98.6016 96.1562C97.4661 96.1562 96.5807 95.9766 95.9453 95.6172V94.4141C96.3568 94.6224 96.7969 94.7865 97.2656 94.9062C97.7396 95.026 98.1953 95.0859 98.6328 95.0859C99.3099 95.0859 99.8307 94.9792 100.195 94.7656C100.56 94.5469 100.742 94.2161 100.742 93.7734C100.742 93.4401 100.596 93.1562 100.305 92.9219C100.018 92.6823 99.4557 92.401 98.6172 92.0781C97.8203 91.7812 97.2526 91.5234 96.9141 91.3047C96.5807 91.0807 96.3307 90.8281 96.1641 90.5469C96.0026 90.2656 95.9219 89.9297 95.9219 89.5391C95.9219 88.8411 96.2057 88.2917 96.7734 87.8906C97.3411 87.4844 98.1198 87.2812 99.1094 87.2812C100.031 87.2812 100.932 87.4688 101.812 87.8438L101.352 88.8984C100.492 88.5443 99.7135 88.3672 99.0156 88.3672C98.401 88.3672 97.9375 88.4635 97.625 88.6562C97.3125 88.849 97.1562 89.1146 97.1562 89.4531C97.1562 89.6823 97.2135 89.8776 97.3281 90.0391C97.4479 90.2005 97.638 90.3542 97.8984 90.5C98.1589 90.6458 98.6589 90.8568 99.3984 91.1328C100.414 91.5026 101.099 91.875 101.453 92.25C101.812 92.625 101.992 93.0964 101.992 93.6641ZM109.375 96L109.117 94.7812H109.055C108.628 95.3177 108.201 95.6823 107.773 95.875C107.352 96.0625 106.823 96.1562 106.188 96.1562C105.339 96.1562 104.672 95.9375 104.188 95.5C103.708 95.0625 103.469 94.4401 103.469 93.6328C103.469 91.9036 104.852 90.9974 107.617 90.9141L109.07 90.8672V90.3359C109.07 89.6641 108.924 89.1693 108.633 88.8516C108.346 88.5286 107.885 88.3672 107.25 88.3672C106.536 88.3672 105.729 88.5859 104.828 89.0234L104.43 88.0312C104.852 87.8021 105.312 87.6224 105.812 87.4922C106.318 87.362 106.823 87.2969 107.328 87.2969C108.349 87.2969 109.104 87.5234 109.594 87.9766C110.089 88.4297 110.336 89.1562 110.336 90.1562V96H109.375ZM106.445 95.0859C107.253 95.0859 107.885 94.8646 108.344 94.4219C108.807 93.9792 109.039 93.3594 109.039 92.5625V91.7891L107.742 91.8438C106.711 91.8802 105.966 92.0417 105.508 92.3281C105.055 92.6094 104.828 93.0495 104.828 93.6484C104.828 94.1172 104.969 94.474 105.25 94.7188C105.536 94.9635 105.935 95.0859 106.445 95.0859ZM114.312 96H113.016V83.8438H114.312V96ZM122.328 96L122.07 94.7812H122.008C121.581 95.3177 121.154 95.6823 120.727 95.875C120.305 96.0625 119.776 96.1562 119.141 96.1562C118.292 96.1562 117.625 95.9375 117.141 95.5C116.661 95.0625 116.422 94.4401 116.422 93.6328C116.422 91.9036 117.805 90.9974 120.57 90.9141L122.023 90.8672V90.3359C122.023 89.6641 121.878 89.1693 121.586 88.8516C121.299 88.5286 120.839 88.3672 120.203 88.3672C119.49 88.3672 118.682 88.5859 117.781 89.0234L117.383 88.0312C117.805 87.8021 118.266 87.6224 118.766 87.4922C119.271 87.362 119.776 87.2969 120.281 87.2969C121.302 87.2969 122.057 87.5234 122.547 87.9766C123.042 88.4297 123.289 89.1562 123.289 90.1562V96H122.328ZM119.398 95.0859C120.206 95.0859 120.839 94.8646 121.297 94.4219C121.76 93.9792 121.992 93.3594 121.992 92.5625V91.7891L120.695 91.8438C119.664 91.8802 118.919 92.0417 118.461 92.3281C118.008 92.6094 117.781 93.0495 117.781 93.6484C117.781 94.1172 117.922 94.474 118.203 94.7188C118.49 94.9635 118.888 95.0859 119.398 95.0859Z" fill="#A1B2CD"/>
<path d="M8 68H355V64H8V68ZM361 74V106H365V74H361ZM355 112H8V116H355V112ZM2 106V74H-2V106H2ZM8 112C4.68629 112 2 109.314 2 106H-2C-2 111.523 2.47716 116 8 116V112ZM361 106C361 109.314 358.314 112 355 112V116C360.523 116 365 111.523 365 106H361ZM355 68C358.314 68 361 70.6863 361 74H365C365 68.4772 360.523 64 355 64V68ZM8 64C2.47715 64 -2 68.4772 -2 74H2C2 70.6863 4.68629 68 8 68V64Z" fill="#A1B2CD"/>
<path d="M6.524 15.18V19.156H12.936V22.852H6.524V27.164H13.776V31H1.736V11.344H13.776V15.18H6.524ZM26.4044 15.208C28.2338 15.208 29.6898 15.8053 30.7724 17C31.8738 18.176 32.4244 19.8 32.4244 21.872V31H27.6644V22.516C27.6644 21.4707 27.3938 20.6587 26.8524 20.08C26.3111 19.5013 25.5831 19.212 24.6684 19.212C23.7538 19.212 23.0258 19.5013 22.4844 20.08C21.9431 20.6587 21.6724 21.4707 21.6724 22.516V31H16.8844V15.376H21.6724V17.448C22.1578 16.7573 22.8111 16.216 23.6324 15.824C24.4538 15.4133 25.3778 15.208 26.4044 15.208ZM44.4596 26.94V31H42.0236C40.2876 31 38.9343 30.58 37.9636 29.74C36.993 28.8813 36.5076 27.4907 36.5076 25.568V19.352H34.6036V15.376H36.5076V11.568H41.2956V15.376H44.4316V19.352H41.2956V25.624C41.2956 26.0907 41.4076 26.4267 41.6316 26.632C41.8556 26.8373 42.229 26.94 42.7516 26.94H44.4596ZM51.9146 17.98C52.4746 17.1213 53.1746 16.4493 54.0146 15.964C54.8546 15.46 55.788 15.208 56.8146 15.208V20.276H55.4986C54.304 20.276 53.408 20.5373 52.8106 21.06C52.2133 21.564 51.9146 22.46 51.9146 23.748V31H47.1266V15.376H51.9146V17.98ZM73.8312 22.936C73.8312 23.384 73.8032 23.8507 73.7472 24.336H62.9112C62.9859 25.3067 63.2939 26.0533 63.8352 26.576C64.3952 27.08 65.0765 27.332 65.8792 27.332C67.0739 27.332 67.9045 26.828 68.3712 25.82H73.4672C73.2059 26.8467 72.7299 27.7707 72.0392 28.592C71.3672 29.4133 70.5179 30.0573 69.4912 30.524C68.4645 30.9907 67.3165 31.224 66.0472 31.224C64.5165 31.224 63.1539 30.8973 61.9592 30.244C60.7645 29.5907 59.8312 28.6573 59.1592 27.444C58.4872 26.2307 58.1512 24.812 58.1512 23.188C58.1512 21.564 58.4779 20.1453 59.1312 18.932C59.8032 17.7187 60.7365 16.7853 61.9312 16.132C63.1259 15.4787 64.4979 15.152 66.0472 15.152C67.5592 15.152 68.9032 15.4693 70.0792 16.104C71.2552 16.7387 72.1699 17.644 72.8232 18.82C73.4952 19.996 73.8312 21.368 73.8312 22.936ZM68.9312 21.676C68.9312 20.8547 68.6512 20.2013 68.0912 19.716C67.5312 19.2307 66.8312 18.988 65.9912 18.988C65.1885 18.988 64.5072 19.2213 63.9472 19.688C63.4059 20.1547 63.0699 20.8173 62.9392 21.676H68.9312ZM81.3387 23.188C81.3387 21.564 81.6654 20.1453 82.3187 18.932C82.9907 17.7187 83.9147 16.7853 85.0907 16.132C86.2854 15.4787 87.648 15.152 89.1787 15.152C91.1387 15.152 92.772 15.6653 94.0787 16.692C95.404 17.7187 96.272 19.1653 96.6827 21.032H91.5867C91.1574 19.8373 90.3267 19.24 89.0947 19.24C88.2174 19.24 87.5174 19.5853 86.9947 20.276C86.472 20.948 86.2107 21.9187 86.2107 23.188C86.2107 24.4573 86.472 25.4373 86.9947 26.128C87.5174 26.8 88.2174 27.136 89.0947 27.136C90.3267 27.136 91.1574 26.5387 91.5867 25.344H96.6827C96.272 27.1733 95.404 28.6107 94.0787 29.656C92.7534 30.7013 91.12 31.224 89.1787 31.224C87.648 31.224 86.2854 30.8973 85.0907 30.244C83.9147 29.5907 82.9907 28.6573 82.3187 27.444C81.6654 26.2307 81.3387 24.812 81.3387 23.188ZM106.356 31.224C104.825 31.224 103.444 30.8973 102.212 30.244C100.998 29.5907 100.037 28.6573 99.3278 27.444C98.6371 26.2307 98.2918 24.812 98.2918 23.188C98.2918 21.5827 98.6465 20.1733 99.3558 18.96C100.065 17.728 101.036 16.7853 102.268 16.132C103.5 15.4787 104.881 15.152 106.412 15.152C107.942 15.152 109.324 15.4787 110.556 16.132C111.788 16.7853 112.758 17.728 113.468 18.96C114.177 20.1733 114.532 21.5827 114.532 23.188C114.532 24.7933 114.168 26.212 113.44 27.444C112.73 28.6573 111.75 29.5907 110.5 30.244C109.268 30.8973 107.886 31.224 106.356 31.224ZM106.356 27.08C107.27 27.08 108.045 26.744 108.68 26.072C109.333 25.4 109.66 24.4387 109.66 23.188C109.66 21.9373 109.342 20.976 108.708 20.304C108.092 19.632 107.326 19.296 106.412 19.296C105.478 19.296 104.704 19.632 104.088 20.304C103.472 20.9573 103.164 21.9187 103.164 23.188C103.164 24.4387 103.462 25.4 104.06 26.072C104.676 26.744 105.441 27.08 106.356 27.08ZM137.008 15.208C138.949 15.208 140.489 15.796 141.628 16.972C142.785 18.148 143.364 19.7813 143.364 21.872V31H138.604V22.516C138.604 21.508 138.333 20.7333 137.792 20.192C137.269 19.632 136.541 19.352 135.608 19.352C134.675 19.352 133.937 19.632 133.396 20.192C132.873 20.7333 132.612 21.508 132.612 22.516V31H127.852V22.516C127.852 21.508 127.581 20.7333 127.04 20.192C126.517 19.632 125.789 19.352 124.856 19.352C123.923 19.352 123.185 19.632 122.644 20.192C122.121 20.7333 121.86 21.508 121.86 22.516V31H117.072V15.376H121.86V17.336C122.345 16.6827 122.98 16.1693 123.764 15.796C124.548 15.404 125.435 15.208 126.424 15.208C127.6 15.208 128.645 15.46 129.56 15.964C130.493 16.468 131.221 17.1867 131.744 18.12C132.285 17.2613 133.023 16.5613 133.956 16.02C134.889 15.4787 135.907 15.208 137.008 15.208ZM153.825 31.224C152.294 31.224 150.913 30.8973 149.681 30.244C148.467 29.5907 147.506 28.6573 146.797 27.444C146.106 26.2307 145.761 24.812 145.761 23.188C145.761 21.5827 146.115 20.1733 146.825 18.96C147.534 17.728 148.505 16.7853 149.737 16.132C150.969 15.4787 152.35 15.152 153.881 15.152C155.411 15.152 156.793 15.4787 158.025 16.132C159.257 16.7853 160.227 17.728 160.937 18.96C161.646 20.1733 162.001 21.5827 162.001 23.188C162.001 24.7933 161.637 26.212 160.909 27.444C160.199 28.6573 159.219 29.5907 157.969 30.244C156.737 30.8973 155.355 31.224 153.825 31.224ZM153.825 27.08C154.739 27.08 155.514 26.744 156.149 26.072C156.802 25.4 157.129 24.4387 157.129 23.188C157.129 21.9373 156.811 20.976 156.177 20.304C155.561 19.632 154.795 19.296 153.881 19.296C152.947 19.296 152.173 19.632 151.557 20.304C150.941 20.9573 150.633 21.9187 150.633 23.188C150.633 24.4387 150.931 25.4 151.529 26.072C152.145 26.744 152.91 27.08 153.825 27.08ZM175.262 17.588C175.729 16.86 176.373 16.272 177.194 15.824C178.016 15.376 178.977 15.152 180.078 15.152C181.366 15.152 182.533 15.4787 183.578 16.132C184.624 16.7853 185.445 17.7187 186.042 18.932C186.658 20.1453 186.966 21.5547 186.966 23.16C186.966 24.7653 186.658 26.184 186.042 27.416C185.445 28.6293 184.624 29.572 183.578 30.244C182.533 30.8973 181.366 31.224 180.078 31.224C178.996 31.224 178.034 31 177.194 30.552C176.373 30.104 175.729 29.5253 175.262 28.816V38.448H170.474V15.376H175.262V17.588ZM182.094 23.16C182.094 21.9653 181.758 21.032 181.086 20.36C180.433 19.6693 179.621 19.324 178.65 19.324C177.698 19.324 176.886 19.6693 176.214 20.36C175.561 21.0507 175.234 21.9933 175.234 23.188C175.234 24.3827 175.561 25.3253 176.214 26.016C176.886 26.7067 177.698 27.052 178.65 27.052C179.602 27.052 180.414 26.7067 181.086 26.016C181.758 25.3067 182.094 24.3547 182.094 23.16ZM188.526 23.16C188.526 21.5547 188.825 20.1453 189.422 18.932C190.038 17.7187 190.869 16.7853 191.914 16.132C192.96 15.4787 194.126 15.152 195.414 15.152C196.516 15.152 197.477 15.376 198.298 15.824C199.138 16.272 199.782 16.86 200.23 17.588V15.376H205.018V31H200.23V28.788C199.764 29.516 199.11 30.104 198.27 30.552C197.449 31 196.488 31.224 195.386 31.224C194.117 31.224 192.96 30.8973 191.914 30.244C190.869 29.572 190.038 28.6293 189.422 27.416C188.825 26.184 188.526 24.7653 188.526 23.16ZM200.23 23.188C200.23 21.9933 199.894 21.0507 199.222 20.36C198.569 19.6693 197.766 19.324 196.814 19.324C195.862 19.324 195.05 19.6693 194.378 20.36C193.725 21.032 193.398 21.9653 193.398 23.16C193.398 24.3547 193.725 25.3067 194.378 26.016C195.05 26.7067 195.862 27.052 196.814 27.052C197.766 27.052 198.569 26.7067 199.222 26.016C199.894 25.3253 200.23 24.3827 200.23 23.188ZM213.27 17.98C213.83 17.1213 214.53 16.4493 215.37 15.964C216.21 15.46 217.143 15.208 218.17 15.208V20.276H216.854C215.659 20.276 214.763 20.5373 214.166 21.06C213.569 21.564 213.27 22.46 213.27 23.748V31H208.482V15.376H213.27V17.98ZM229.167 26.94V31H226.731C224.995 31 223.641 30.58 222.671 29.74C221.7 28.8813 221.215 27.4907 221.215 25.568V19.352H219.311V15.376H221.215V11.568H226.003V15.376H229.139V19.352H226.003V25.624C226.003 26.0907 226.115 26.4267 226.339 26.632C226.563 26.8373 226.936 26.94 227.459 26.94H229.167ZM234.242 13.752C233.402 13.752 232.711 13.5093 232.17 13.024C231.647 12.52 231.386 11.904 231.386 11.176C231.386 10.4293 231.647 9.81333 232.17 9.328C232.711 8.824 233.402 8.572 234.242 8.572C235.063 8.572 235.735 8.824 236.258 9.328C236.799 9.81333 237.07 10.4293 237.07 11.176C237.07 11.904 236.799 12.52 236.258 13.024C235.735 13.5093 235.063 13.752 234.242 13.752ZM236.622 15.376V31H231.834V15.376H236.622ZM239.139 23.188C239.139 21.564 239.466 20.1453 240.119 18.932C240.791 17.7187 241.715 16.7853 242.891 16.132C244.086 15.4787 245.449 15.152 246.979 15.152C248.939 15.152 250.573 15.6653 251.879 16.692C253.205 17.7187 254.073 19.1653 254.483 21.032H249.387C248.958 19.8373 248.127 19.24 246.895 19.24C246.018 19.24 245.318 19.5853 244.795 20.276C244.273 20.948 244.011 21.9187 244.011 23.188C244.011 24.4573 244.273 25.4373 244.795 26.128C245.318 26.8 246.018 27.136 246.895 27.136C248.127 27.136 248.958 26.5387 249.387 25.344H254.483C254.073 27.1733 253.205 28.6107 251.879 29.656C250.554 30.7013 248.921 31.224 246.979 31.224C245.449 31.224 244.086 30.8973 242.891 30.244C241.715 29.5907 240.791 28.6573 240.119 27.444C239.466 26.2307 239.139 24.812 239.139 23.188ZM259.453 13.752C258.613 13.752 257.922 13.5093 257.381 13.024C256.858 12.52 256.597 11.904 256.597 11.176C256.597 10.4293 256.858 9.81333 257.381 9.328C257.922 8.824 258.613 8.572 259.453 8.572C260.274 8.572 260.946 8.824 261.469 9.328C262.01 9.81333 262.281 10.4293 262.281 11.176C262.281 11.904 262.01 12.52 261.469 13.024C260.946 13.5093 260.274 13.752 259.453 13.752ZM261.833 15.376V31H257.045V15.376H261.833ZM270.09 17.588C270.557 16.86 271.201 16.272 272.022 15.824C272.844 15.376 273.805 15.152 274.906 15.152C276.194 15.152 277.361 15.4787 278.406 16.132C279.452 16.7853 280.273 17.7187 280.87 18.932C281.486 20.1453 281.794 21.5547 281.794 23.16C281.794 24.7653 281.486 26.184 280.87 27.416C280.273 28.6293 279.452 29.572 278.406 30.244C277.361 30.8973 276.194 31.224 274.906 31.224C273.824 31.224 272.862 31 272.022 30.552C271.201 30.104 270.557 29.5253 270.09 28.816V38.448H265.302V15.376H270.09V17.588ZM276.922 23.16C276.922 21.9653 276.586 21.032 275.914 20.36C275.261 19.6693 274.449 19.324 273.478 19.324C272.526 19.324 271.714 19.6693 271.042 20.36C270.389 21.0507 270.062 21.9933 270.062 23.188C270.062 24.3827 270.389 25.3253 271.042 26.016C271.714 26.7067 272.526 27.052 273.478 27.052C274.43 27.052 275.242 26.7067 275.914 26.016C276.586 25.3067 276.922 24.3547 276.922 23.16ZM283.354 23.16C283.354 21.5547 283.653 20.1453 284.25 18.932C284.866 17.7187 285.697 16.7853 286.742 16.132C287.788 15.4787 288.954 15.152 290.242 15.152C291.344 15.152 292.305 15.376 293.126 15.824C293.966 16.272 294.61 16.86 295.058 17.588V15.376H299.846V31H295.058V28.788C294.592 29.516 293.938 30.104 293.098 30.552C292.277 31 291.316 31.224 290.214 31.224C288.945 31.224 287.788 30.8973 286.742 30.244C285.697 29.572 284.866 28.6293 284.25 27.416C283.653 26.184 283.354 24.7653 283.354 23.16ZM295.058 23.188C295.058 21.9933 294.722 21.0507 294.05 20.36C293.397 19.6693 292.594 19.324 291.642 19.324C290.69 19.324 289.878 19.6693 289.206 20.36C288.553 21.032 288.226 21.9653 288.226 23.16C288.226 24.3547 288.553 25.3067 289.206 26.016C289.878 26.7067 290.69 27.052 291.642 27.052C292.594 27.052 293.397 26.7067 294.05 26.016C294.722 25.3253 295.058 24.3827 295.058 23.188ZM312.83 15.208C314.66 15.208 316.116 15.8053 317.198 17C318.3 18.176 318.85 19.8 318.85 21.872V31H314.09V22.516C314.09 21.4707 313.82 20.6587 313.278 20.08C312.737 19.5013 312.009 19.212 311.094 19.212C310.18 19.212 309.452 19.5013 308.91 20.08C308.369 20.6587 308.098 21.4707 308.098 22.516V31H303.31V15.376H308.098V17.448C308.584 16.7573 309.237 16.216 310.058 15.824C310.88 15.4133 311.804 15.208 312.83 15.208ZM330.885 26.94V31H328.449C326.713 31 325.36 30.58 324.389 29.74C323.419 28.8813 322.933 27.4907 322.933 25.568V19.352H321.029V15.376H322.933V11.568H327.721V15.376H330.857V19.352H327.721V25.624C327.721 26.0907 327.833 26.4267 328.057 26.632C328.281 26.8373 328.655 26.94 329.177 26.94H330.885ZM348.28 22.936C348.28 23.384 348.252 23.8507 348.196 24.336H337.36C337.435 25.3067 337.743 26.0533 338.284 26.576C338.844 27.08 339.526 27.332 340.328 27.332C341.523 27.332 342.354 26.828 342.82 25.82H347.916C347.655 26.8467 347.179 27.7707 346.488 28.592C345.816 29.4133 344.967 30.0573 343.94 30.524C342.914 30.9907 341.766 31.224 340.496 31.224C338.966 31.224 337.603 30.8973 336.408 30.244C335.214 29.5907 334.28 28.6573 333.608 27.444C332.936 26.2307 332.6 24.812 332.6 23.188C332.6 21.564 332.927 20.1453 333.58 18.932C334.252 17.7187 335.186 16.7853 336.38 16.132C337.575 15.4787 338.947 15.152 340.496 15.152C342.008 15.152 343.352 15.4693 344.528 16.104C345.704 16.7387 346.619 17.644 347.272 18.82C347.944 19.996 348.28 21.368 348.28 22.936ZM343.38 21.676C343.38 20.8547 343.1 20.2013 342.54 19.716C341.98 19.2307 341.28 18.988 340.44 18.988C339.638 18.988 338.956 19.2213 338.396 19.688C337.855 20.1547 337.519 20.8173 337.388 21.676H343.38Z" fill="#0D114F"/>
</svg>
